<svg width="800" height="800" viewBox="0 0 800 800" fill="none" xmlns="http://www.w3.org/2000/svg">
  <rect width="800" height="800" rx="80" fill="#FFF4F8"/>
  <rect x="165" y="210" width="470" height="360" rx="40" fill="#F8DDE7" stroke="#E7A9C0" stroke-width="16"/>
  <rect x="205" y="145" width="390" height="120" rx="30" fill="#FFB7D1" stroke="#E68BB0" stroke-width="14"/>
  <rect x="245" y="265" width="310" height="220" rx="24" fill="#ffffff" stroke="#E7A9C0" stroke-width="12"/>
  <rect x="320" y="310" width="160" height="120" rx="24" fill="#F8DDE7"/>
  <circle cx="355" cy="365" r="18" fill="#2E2E2E"/>
  <circle cx="445" cy="365" r="18" fill="#2E2E2E"/>
  <path d="M362 425C378 438 422 438 438 425" stroke="#2E2E2E" stroke-width="12" stroke-linecap="round"/>
  <path d="M325 295C335 250 465 250 475 295" stroke="#E68BB0" stroke-width="16" stroke-linecap="round"/>
  <circle cx="275" cy="335" r="20" fill="#FFB7D1"/>
  <circle cx="525" cy="335" r="20" fill="#FFB7D1"/>
  <path d="M280 180L320 120" stroke="#E68BB0" stroke-width="14" stroke-linecap="round"/>
  <path d="M520 180L480 120" stroke="#E68BB0" stroke-width="14" stroke-linecap="round"/>
  <text x="400" y="660" text-anchor="middle" fill="#C95B86" font-family="Arial, sans-serif" font-size="54" font-weight="700">Stitch Blind Boxes</text>
  <text x="400" y="715" text-anchor="middle" fill="#9D4C6E" font-family="Arial, sans-serif" font-size="34">Mystery collectibles & surprises</text>
</svg>
